<svg width="117" height="117" viewBox="0 0 117 117" fill="none" xmlns="http://www.w3.org/2000/svg">
<path d="M53.625 102.375V92.625H43.875V82.875H53.625V72.6375C47.2063 71.5 41.9445 68.432 37.8398 63.4335C33.735 58.435 31.6843 52.6468 31.6875 46.0688C31.6875 38.675 34.3086 32.3993 39.5509 27.2415C44.7931 22.0838 51.1095 19.5033 58.5 19.5C65.8905 19.4968 72.2085 22.0773 77.454 27.2415C82.6995 32.4058 85.319 38.6815 85.3125 46.0688C85.3125 52.65 83.2601 58.4399 79.1554 63.4384C75.0506 68.4369 69.7905 71.5033 63.375 72.6375V82.875H73.125V92.625H63.375V102.375H53.625ZM58.5 63.375C63.2125 63.375 67.2344 61.7094 70.5656 58.3781C73.8969 55.0469 75.5625 51.025 75.5625 46.3125C75.5625 41.6 73.8969 37.5781 70.5656 34.2469C67.2344 30.9156 63.2125 29.25 58.5 29.25C53.7875 29.25 49.7656 30.9156 46.4344 34.2469C43.1031 37.5781 41.4375 41.6 41.4375 46.3125C41.4375 51.025 43.1031 55.0469 46.4344 58.3781C49.7656 61.7094 53.7875 63.375 58.5 63.375Z" fill="black"/>
</svg>
