<svg width="117" height="117" viewBox="0 0 117 117" fill="none" xmlns="http://www.w3.org/2000/svg">
<path d="M97.5 19.5V48.75H87.75V36.1969L68.3719 55.4531C69.9156 57.7281 71.0938 60.1461 71.9062 62.7071C72.7188 65.2681 73.125 67.9282 73.125 70.6875C73.125 78.1625 70.525 84.5 65.325 89.7C60.125 94.9 53.7875 97.5 46.3125 97.5C38.8375 97.5 32.5 94.9 27.3 89.7C22.1 84.5 19.5 78.1625 19.5 70.6875C19.5 63.2125 22.1 56.875 27.3 51.675C32.5 46.475 38.8375 43.875 46.3125 43.875C48.9937 43.875 51.6344 44.2601 54.2344 45.0304C56.8344 45.8006 59.2313 46.9999 61.425 48.6281L80.8031 29.25H68.25V19.5H97.5ZM46.3125 53.625C41.6 53.625 37.5781 55.2906 34.2469 58.6219C30.9156 61.9531 29.25 65.975 29.25 70.6875C29.25 75.4 30.9156 79.4219 34.2469 82.7531C37.5781 86.0844 41.6 87.75 46.3125 87.75C51.025 87.75 55.0469 86.0844 58.3781 82.7531C61.7094 79.4219 63.375 75.4 63.375 70.6875C63.375 65.975 61.7094 61.9531 58.3781 58.6219C55.0469 55.2906 51.025 53.625 46.3125 53.625Z" fill="black"/>
</svg>
